PathFileType	4	(x/y/z)	S05_BK_Cal_T01
DataRate	CameraRate	NumFrames	NumMarkers	Units	OrigDataRate	OrigDataStartFrame	OrigNumFrames
240	240	11	50	mm	240	901	2400
Frame#	Time	Sternum			R.Acromium			L.Acromium			Top.Head			R.ASIS			L.ASIS			R.PSIS			L.PSIS			R.Great.Tro			L.Great.Tro			R.Iliac.Crest			L.Iliac.Crest			V.Sacral			R.Thigh.Upper.Post			R.Thigh.Lower.Ant			R.Thigh.Lower.Post			R.Thigh.Upper.Ant			R.Knee.Lat			R.Knee.Med			R.Shank.Upper.Post			R.Shank.Lower.Ant			R.Shank.Lower.Post			R.Shank.Upper.Ant			R.Ankle.Lat			R.Ankle.Med			R.Heel.Upper			R.Heel.Med			R.Heel.Lat			R.Toe.Lat			R.Toe.Med			R.Toe.Tip			L.Thigh.Upper.Post			L.Thigh.Lower.Ant			L.Thigh.Lower.Post			L.Thigh.Upper.Ant			L.Knee.Lat			L.Shank.Upper.Post			L.Shank.Lower.Ant			L.Shank.Lower.Post			L.Shank.Upper.Ant			L.Ankle.Lat			L.Ankle.Med			L.Heel.Upper			L.Heel.Med			L.Heel.Lat			L.Toe.Lat			L.Toe.Med			L.Toe.Tip			Cervical.Spine			Back			
		X1	Y1	Z1	X2	Y2	Z2	X3	Y3	Z3	X4	Y4	Z4	X5	Y5	Z5	X6	Y6	Z6	X7	Y7	Z7	X8	Y8	Z8	X9	Y9	Z9	X10	Y10	Z10	X11	Y11	Z11	X12	Y12	Z12	X13	Y13	Z13	X14	Y14	Z14	X15	Y15	Z15	X16	Y16	Z16	X17	Y17	Z17	X18	Y18	Z18	X19	Y19	Z19	X20	Y20	Z20	X21	Y21	Z21	X22	Y22	Z22	X23	Y23	Z23	X24	Y24	Z24	X25	Y25	Z25	X26	Y26	Z26	X27	Y27	Z27	X28	Y28	Z28	X29	Y29	Z29	X30	Y30	Z30	X31	Y31	Z31	X32	Y32	Z32	X33	Y33	Z33	X34	Y34	Z34	X35	Y35	Z35	X36	Y36	Z36	X37	Y37	Z37	X38	Y38	Z38	X39	Y39	Z39	X40	Y40	Z40	X41	Y41	Z41	X42	Y42	Z42	X43	Y43	Z43	X44	Y44	Z44	X45	Y45	Z45	X46	Y46	Z46	X47	Y47	Z47	X48	Y48	Z48	X49	Y49	Z49	X50	Y50	Z50	

901	3.75	508.84	1242.6	324.03	422.23	1498.1	482.59	404.98	1506.9	142.95	423.9	1819.6	318.47	432.19	989.89	453.78	442.33	991.39	204.09	234.75	1015.4	360.11	239.75	1016.2	267.56	350.91	913.15	515.33	359.36	914.97	124.37	353.21	1078.6	488.09	362.21	1073.6	155.65	224.6	977.64	325.95	444.92	705.3	531.63	512.18	643.47	485.4	452.4	615.66	516.58	500.06	731.7	499.78	463.15	520.39	505.38	467.65	495.63	377.34	346.76	299.46	516.35	395.23	222.48	514.09	331.23	224.22	505.07	412.3	298.87	524.43	355.09	123.65	506.64	361.01	143.39	412.84	273.39	75.185	456.01	281.91	41.265	429.35	283.36	48.902	493.98	452.02	36.886	534.57	478.88	40.826	412.65	545.96	57.365	453.56	412.44	681.2	113	506.18	625.64	132.95	442.74	590.94	124.32	483.85	713.42	122.01	466.94	505.47	125.41	366.89	328.01	117.32	420.59	257.24	119.59	350.11	257.33	131.73	432.67	326.86	109.7	345.15	117.95	134.71	381.46	125.6	222.47	278.63	68.324	186.2	291.01	43.548	218.13	281.28	40.822	157.27	462.27	39.197	98.099	488.33	51.154	216.6	551.12	60.18	159.72	360.59	1551.9	321.12	248.65	1278.8	323.28
902	3.7542	508.83	1242.6	324.04	422.21	1498.1	482.6	404.99	1506.9	142.97	423.88	1819.6	318.51	432.19	989.89	453.79	442.33	991.39	204.09	234.74	1015.4	360.11	239.75	1016.2	267.56	350.91	913.14	515.33	359.37	914.97	124.38	353.2	1078.6	488.09	362.21	1073.6	155.65	224.6	977.63	325.95	444.93	705.3	531.63	512.18	643.47	485.41	452.4	615.66	516.58	500.07	731.7	499.79	463.16	520.39	505.38	467.65	495.63	377.34	346.76	299.46	516.35	395.23	222.48	514.09	331.23	224.22	505.07	412.3	298.87	524.43	355.09	123.65	506.64	361.01	143.39	412.84	273.39	75.185	456.01	281.91	41.267	429.35	283.36	48.902	493.98	452.02	36.884	534.56	478.88	40.827	412.65	545.96	57.365	453.56	412.45	681.19	113	506.19	625.64	132.96	442.75	590.94	124.33	483.86	713.41	122.01	466.95	505.47	125.41	366.9	328.01	117.32	420.6	257.24	119.6	350.12	257.33	131.73	432.67	326.86	109.72	345.16	117.95	134.71	381.46	125.6	222.47	278.63	68.324	186.2	291.01	43.549	218.13	281.28	40.823	157.27	462.27	39.198	98.1	488.33	51.152	216.6	551.12	60.179	159.72	360.58	1551.9	321.13	248.64	1278.8	323.28
903	3.7583	508.83	1242.6	324.04	422.2	1498.1	482.61	404.99	1506.9	142.98	423.86	1819.6	318.54	432.18	989.89	453.79	442.33	991.39	204.1	234.74	1015.4	360.11	239.75	1016.2	267.56	350.91	913.14	515.33	359.37	914.97	124.38	353.2	1078.6	488.09	362.21	1073.6	155.65	224.6	977.62	325.96	444.93	705.29	531.63	512.19	643.46	485.41	452.4	615.66	516.58	500.07	731.7	499.79	463.16	520.39	505.39	467.66	495.62	377.35	346.76	299.46	516.35	395.24	222.48	514.08	331.23	224.22	505.07	412.3	298.87	524.43	355.09	123.65	506.64	361.02	143.39	412.84	273.39	75.186	456.01	281.91	41.268	429.34	283.37	48.901	493.98	452.02	36.882	534.56	478.88	40.827	412.65	545.96	57.365	453.56	412.45	681.19	113.01	506.19	625.64	132.96	442.76	590.93	124.33	483.86	713.41	122.01	466.96	505.47	125.42	366.9	328.01	117.33	420.6	257.24	119.6	350.12	257.33	131.73	432.67	326.86	109.73	345.16	117.95	134.71	381.46	125.6	222.47	278.63	68.324	186.2	291.01	43.549	218.13	281.28	40.823	157.27	462.27	39.198	98.101	488.33	51.151	216.6	551.12	60.178	159.72	360.58	1551.9	321.14	248.64	1278.8	323.28
904	3.7625	508.82	1242.6	324.05	422.19	1498.1	482.62	404.99	1507	142.99	423.85	1819.6	318.57	432.18	989.88	453.8	442.34	991.39	204.1	234.74	1015.4	360.11	239.74	1016.2	267.56	350.91	913.13	515.33	359.38	914.97	124.39	353.19	1078.6	488.09	362.21	1073.6	155.66	224.6	977.62	325.96	444.93	705.29	531.63	512.19	643.46	485.42	452.4	615.65	516.58	500.07	731.69	499.79	463.16	520.39	505.39	467.67	495.62	377.35	346.77	299.46	516.35	395.24	222.47	514.08	331.23	224.22	505.07	412.3	298.87	524.43	355.09	123.65	506.64	361.02	143.39	412.84	273.39	75.186	456.01	281.91	41.269	429.34	283.37	48.902	493.98	452.02	36.88	534.56	478.88	40.827	412.65	545.97	57.366	453.56	412.46	681.19	113.02	506.2	625.63	132.97	442.76	590.93	124.34	483.87	713.41	122.02	466.96	505.47	125.42	366.91	328.01	117.33	420.61	257.24	119.6	350.13	257.33	131.73	432.68	326.86	109.74	345.16	117.95	134.71	381.46	125.6	222.47	278.63	68.324	186.2	291.01	43.55	218.13	281.29	40.824	157.27	462.27	39.199	98.102	488.33	51.149	216.61	551.12	60.177	159.73	360.57	1551.9	321.15	248.63	1278.8	323.28
905	3.7667	508.82	1242.6	324.06	422.17	1498.1	482.63	405	1507	143	423.83	1819.6	318.6	432.18	989.88	453.8	442.34	991.39	204.11	234.73	1015.4	360.11	239.74	1016.2	267.56	350.9	913.13	515.33	359.38	914.97	124.39	353.18	1078.6	488.1	362.21	1073.6	155.66	224.59	977.61	325.96	444.93	705.28	531.63	512.19	643.46	485.42	452.4	615.65	516.58	500.07	731.69	499.8	463.17	520.39	505.39	467.67	495.62	377.35	346.77	299.46	516.35	395.24	222.47	514.08	331.24	224.22	505.07	412.3	298.86	524.43	355.09	123.65	506.64	361.02	143.39	412.84	273.39	75.187	456.01	281.91	41.27	429.34	283.37	48.902	493.98	452.02	36.877	534.56	478.88	40.826	412.65	545.97	57.366	453.55	412.46	681.19	113.03	506.2	625.63	132.97	442.77	590.93	124.35	483.87	713.41	122.03	466.97	505.47	125.43	366.92	328.01	117.34	420.61	257.24	119.61	350.13	257.33	131.73	432.68	326.87	109.76	345.16	117.95	134.71	381.46	125.61	222.48	278.63	68.325	186.21	291.02	43.551	218.14	281.29	40.825	157.28	462.27	39.2	98.103	488.33	51.147	216.61	551.12	60.175	159.73	360.56	1551.9	321.17	248.63	1278.8	323.28
906	3.7708	508.81	1242.6	324.07	422.16	1498	482.65	405	1507	143.02	423.82	1819.6	318.63	432.17	989.88	453.8	442.34	991.4	204.11	234.73	1015.4	360.11	239.74	1016.2	267.56	350.9	913.12	515.33	359.39	914.97	124.4	353.17	1078.6	488.1	362.21	1073.6	155.67	224.59	977.61	325.96	444.93	705.28	531.63	512.19	643.46	485.42	452.4	615.64	516.58	500.06	731.69	499.8	463.17	520.39	505.39	467.68	495.62	377.35	346.77	299.46	516.35	395.24	222.47	514.08	331.24	224.22	505.07	412.31	298.86	524.43	355.09	123.65	506.64	361.02	143.39	412.83	273.39	75.187	456.01	281.91	41.27	429.34	283.37	48.903	493.98	452.02	36.875	534.56	478.88	40.826	412.65	545.97	57.366	453.55	412.47	681.18	113.03	506.21	625.63	132.98	442.77	590.93	124.36	483.88	713.41	122.03	466.97	505.47	125.44	366.92	328.01	117.34	420.62	257.24	119.61	350.14	257.33	131.74	432.68	326.87	109.77	345.16	117.96	134.72	381.45	125.61	222.48	278.63	68.326	186.21	291.02	43.552	218.14	281.29	40.826	157.28	462.27	39.201	98.105	488.33	51.145	216.61	551.12	60.173	159.73	360.56	1551.9	321.18	248.62	1278.8	323.28
907	3.775	508.8	1242.6	324.08	422.15	1498	482.66	405	1507	143.03	423.81	1819.6	318.66	432.17	989.87	453.81	442.34	991.4	204.12	234.73	1015.4	360.11	239.74	1016.2	267.56	350.9	913.12	515.33	359.4	914.97	124.4	353.16	1078.6	488.1	362.21	1073.6	155.67	224.59	977.6	325.96	444.93	705.27	531.63	512.2	643.46	485.43	452.4	615.64	516.58	500.06	731.69	499.8	463.17	520.39	505.4	467.68	495.62	377.35	346.77	299.46	516.34	395.24	222.47	514.07	331.24	224.22	505.07	412.31	298.86	524.42	355.09	123.65	506.64	361.02	143.39	412.83	273.39	75.187	456.01	281.91	41.27	429.34	283.37	48.904	493.98	452.02	36.873	534.56	478.88	40.826	412.64	545.97	57.367	453.55	412.47	681.18	113.04	506.21	625.63	132.98	442.78	590.92	124.37	483.88	713.41	122.04	466.98	505.47	125.45	366.93	328.01	117.35	420.62	257.24	119.62	350.14	257.34	131.74	432.68	326.87	109.78	345.17	117.96	134.72	381.45	125.61	222.48	278.64	68.328	186.21	291.02	43.553	218.14	281.29	40.827	157.28	462.27	39.202	98.106	488.33	51.142	216.61	551.12	60.171	159.73	360.55	1551.9	321.19	248.62	1278.8	323.28
908	3.7792	508.8	1242.6	324.08	422.14	1498	482.67	405	1507	143.04	423.81	1819.6	318.69	432.17	989.87	453.81	442.34	991.4	204.12	234.72	1015.4	360.11	239.74	1016.1	267.56	350.9	913.11	515.33	359.4	914.97	124.41	353.15	1078.6	488.11	362.21	1073.6	155.67	224.59	977.6	325.96	444.93	705.27	531.63	512.2	643.46	485.43	452.4	615.64	516.59	500.06	731.69	499.8	463.18	520.39	505.4	467.69	495.62	377.35	346.77	299.46	516.34	395.25	222.46	514.07	331.24	224.22	505.06	412.31	298.86	524.42	355.09	123.65	506.64	361.02	143.39	412.83	273.39	75.186	456.01	281.91	41.27	429.34	283.37	48.904	493.98	452.02	36.871	534.55	478.88	40.826	412.64	545.97	57.368	453.55	412.47	681.18	113.05	506.22	625.63	132.99	442.79	590.92	124.37	483.88	713.41	122.05	466.98	505.47	125.45	366.93	328.01	117.35	420.63	257.25	119.62	350.15	257.34	131.74	432.69	326.87	109.79	345.17	117.96	134.72	381.45	125.62	222.49	278.64	68.33	186.21	291.02	43.554	218.14	281.29	40.828	157.28	462.27	39.203	98.107	488.33	51.139	216.61	551.13	60.169	159.73	360.55	1551.9	321.2	248.61	1278.8	323.28
909	3.7833	508.8	1242.6	324.09	422.12	1498	482.68	405	1507	143.06	423.8	1819.6	318.72	432.16	989.87	453.81	442.34	991.4	204.13	234.72	1015.4	360.1	239.74	1016.1	267.56	350.89	913.11	515.33	359.41	914.97	124.41	353.14	1078.6	488.11	362.21	1073.6	155.68	224.58	977.6	325.95	444.93	705.26	531.63	512.2	643.45	485.43	452.4	615.63	516.59	500.06	731.69	499.8	463.18	520.38	505.4	467.69	495.62	377.36	346.77	299.46	516.34	395.25	222.46	514.07	331.24	224.22	505.06	412.31	298.86	524.42	355.09	123.65	506.64	361.02	143.39	412.83	273.39	75.186	456.01	281.91	41.269	429.34	283.37	48.905	493.98	452.02	36.869	534.55	478.88	40.826	412.64	545.97	57.368	453.54	412.48	681.18	113.05	506.23	625.63	132.99	442.79	590.92	124.38	483.89	713.41	122.05	466.99	505.47	125.46	366.94	328.02	117.36	420.64	257.25	119.62	350.16	257.34	131.74	432.69	326.87	109.8	345.17	117.96	134.72	381.45	125.62	222.49	278.64	68.333	186.21	291.02	43.554	218.14	281.29	40.83	157.28	462.27	39.203	98.107	488.33	51.136	216.62	551.13	60.166	159.73	360.54	1551.9	321.21	248.61	1278.8	323.28
910	3.7875	508.79	1242.6	324.1	422.11	1498	482.69	405.01	1507	143.07	423.8	1819.6	318.75	432.16	989.86	453.82	442.34	991.41	204.13	234.72	1015.4	360.1	239.74	1016.1	267.56	350.89	913.11	515.33	359.41	914.98	124.42	353.13	1078.6	488.12	362.22	1073.6	155.68	224.58	977.59	325.95	444.93	705.26	531.63	512.2	643.45	485.43	452.4	615.63	516.59	500.06	731.68	499.81	463.18	520.38	505.4	467.69	495.62	377.36	346.78	299.46	516.34	395.25	222.46	514.07	331.24	224.22	505.06	412.31	298.86	524.42	355.09	123.65	506.64	361.02	143.39	412.83	273.39	75.185	456	281.91	41.268	429.34	283.37	48.907	493.97	452.02	36.868	534.55	478.88	40.826	412.64	545.97	57.369	453.54	412.48	681.18	113.06	506.23	625.63	133	442.8	590.92	124.39	483.89	713.41	122.06	466.99	505.47	125.47	366.95	328.02	117.36	420.64	257.25	119.63	350.16	257.34	131.75	432.7	326.88	109.81	345.17	117.96	134.72	381.45	125.63	222.5	278.64	68.336	186.21	291.02	43.555	218.14	281.29	40.832	157.28	462.27	39.204	98.108	488.33	51.133	216.62	551.13	60.163	159.73	360.53	1551.9	321.23	248.61	1278.8	323.28
911	3.7917	508.79	1242.6	324.11	422.1	1498	482.7	405.01	1507	143.08	423.8	1819.6	318.78	432.16	989.86	453.82	442.34	991.41	204.13	234.71	1015.4	360.1	239.74	1016.1	267.56	350.88	913.1	515.33	359.41	914.98	124.42	353.13	1078.6	488.12	362.22	1073.6	155.69	224.58	977.59	325.95	444.93	705.25	531.63	512.2	643.45	485.44	452.4	615.62	516.59	500.05	731.68	499.81	463.18	520.38	505.4	467.7	495.61	377.36	346.78	299.46	516.33	395.25	222.46	514.06	331.24	224.22	505.06	412.31	298.86	524.42	355.09	123.65	506.63	361.02	143.39	412.83	273.39	75.184	456	281.91	41.267	429.34	283.37	48.908	493.97	452.02	36.867	534.55	478.88	40.826	412.64	545.97	57.37	453.54	412.49	681.18	113.07	506.24	625.63	133.01	442.81	590.91	124.39	483.9	713.41	122.07	467	505.47	125.47	366.95	328.02	117.37	420.65	257.25	119.63	350.17	257.34	131.75	432.7	326.88	109.82	345.17	117.96	134.72	381.45	125.63	222.5	278.64	68.339	186.21	291.02	43.556	218.14	281.29	40.833	157.28	462.27	39.205	98.109	488.33	51.13	216.62	551.13	60.161	159.73	360.53	1551.9	321.24	248.6	1278.8	323.28
